<svg width="216" height="72" viewBox="0 0 216 72" fill="none" xmlns="http://www.w3.org/2000/svg">
<path d="M5.20604 5.91486C5.20604 6.15253 5.17835 6.36379 5.10912 6.56184C5.03989 6.7599 4.95681 6.94475 4.84605 7.10319C4.73528 7.26163 4.59682 7.40688 4.43067 7.52571C4.26452 7.64454 4.08452 7.75017 3.89068 7.82939C3.68299 7.90861 3.47531 7.97463 3.23993 8.01424C3.00455 8.05385 2.74148 8.08026 2.45072 8.08026H0.387683C0.290762 8.08026 0.207688 8.05385 0.124613 7.98784C0.0415378 7.93502 0 7.82939 0 7.67095V0.976697C0 0.831456 0.0415378 0.725827 0.124613 0.659809C0.207688 0.593791 0.290762 0.567383 0.387683 0.567383H2.1738C2.64456 0.567383 3.03224 0.606994 3.323 0.69942C3.62761 0.778642 3.87684 0.910678 4.07068 1.06912C4.26452 1.22757 4.41683 1.42562 4.52759 1.66329C4.62451 1.90095 4.6799 2.16503 4.6799 2.46871C4.6799 2.64036 4.6522 2.812 4.61067 2.98365C4.56913 3.1553 4.4999 3.30054 4.41683 3.43258C4.33375 3.56461 4.22298 3.69665 4.08453 3.80228C3.94607 3.90791 3.80761 4.00033 3.62761 4.06635C3.8353 4.10596 4.04299 4.17198 4.22298 4.27761C4.40298 4.38324 4.56913 4.51528 4.70759 4.67372C4.84605 4.83216 4.95681 5.01701 5.03989 5.22827C5.12296 5.43953 5.1645 5.6772 5.1645 5.92807L5.20604 5.91486ZM3.62761 2.54793C3.62761 2.36308 3.59992 2.20464 3.54454 2.0594C3.48915 1.91416 3.40608 1.78212 3.29531 1.68969C3.18455 1.58406 3.03224 1.50484 2.85224 1.45203C2.67225 1.39921 2.42302 1.37281 2.13226 1.37281H1.05228V3.80228H2.24303C2.51994 3.80228 2.72763 3.76267 2.89378 3.69665C3.05993 3.63063 3.19839 3.5382 3.30916 3.41937C3.41992 3.30054 3.503 3.1685 3.54454 3.02326C3.59992 2.86482 3.61377 2.70637 3.61377 2.54793H3.62761ZM4.11222 5.96768C4.11222 5.74321 4.07068 5.54516 4.00145 5.37351C3.93222 5.20187 3.82145 5.05663 3.66915 4.93779C3.53069 4.81896 3.3507 4.73974 3.12916 4.67372C2.90763 4.6077 2.64456 4.58129 2.31226 4.58129H1.06613V7.22202H2.58917C2.82455 7.22202 3.03224 7.19562 3.21224 7.1428C3.39223 7.08999 3.54454 7.01077 3.68299 6.90514C3.82145 6.79951 3.91837 6.66747 4.00145 6.50903C4.08452 6.35058 4.11222 6.16573 4.11222 5.95447V5.96768Z" fill="white"/>
<path d="M11.3674 7.92276C11.3674 7.92276 11.3674 7.97557 11.3397 8.00198C11.3397 8.02838 11.2982 8.04159 11.2705 8.05479C11.229 8.06799 11.1874 8.0812 11.1321 8.0944C11.0767 8.0944 11.0074 8.0944 10.9105 8.0944C10.8136 8.0944 10.7444 8.0944 10.689 8.0944C10.6336 8.0944 10.5782 8.0812 10.5505 8.05479C10.5228 8.04159 10.4951 8.01518 10.4813 8.00198C10.4813 7.97557 10.4674 7.94916 10.4674 7.92276V7.23616C10.149 7.56626 9.84439 7.80392 9.53978 7.94916C9.23517 8.0944 8.93056 8.17362 8.61211 8.17362C8.25211 8.17362 7.93366 8.12081 7.68443 8.00198C7.43521 7.88314 7.22752 7.7247 7.07522 7.52665C6.92291 7.32859 6.81215 7.09092 6.74292 6.82685C6.67369 6.56278 6.646 6.24589 6.646 5.86298V2.69411C6.646 2.69411 6.646 2.64129 6.67369 2.61489C6.67369 2.58848 6.71523 2.57528 6.75677 2.56207C6.7983 2.54887 6.85368 2.53566 6.92291 2.52246C6.99214 2.52246 7.07522 2.52246 7.17214 2.52246C7.26906 2.52246 7.35214 2.52246 7.42137 2.52246C7.49059 2.52246 7.53213 2.53566 7.57367 2.56207C7.61521 2.57528 7.6429 2.60168 7.65674 2.61489C7.67059 2.62809 7.68443 2.6677 7.68443 2.69411V5.73095C7.68443 6.03463 7.71213 6.2855 7.75367 6.47035C7.7952 6.6552 7.86443 6.81365 7.96135 6.94568C8.05827 7.07772 8.18289 7.17015 8.32134 7.24937C8.47365 7.31539 8.6398 7.355 8.83364 7.355C9.08287 7.355 9.33209 7.27578 9.58132 7.10413C9.83054 6.93248 10.0936 6.68161 10.3705 6.35152V2.70731C10.3705 2.70731 10.3705 2.6545 10.3982 2.62809C10.3982 2.60168 10.4398 2.58848 10.4813 2.57528C10.5228 2.56207 10.5782 2.54887 10.6336 2.53566C10.7028 2.53566 10.7721 2.53566 10.8828 2.53566C10.9936 2.53566 11.0628 2.53566 11.1321 2.53566C11.2013 2.53566 11.2428 2.54887 11.2844 2.57528C11.3259 2.58848 11.3536 2.61489 11.3674 2.62809C11.3813 2.6545 11.3951 2.6809 11.3951 2.70731V7.93596L11.3674 7.92276Z" fill="white"/>
<path d="M14.3443 0.937385C14.3443 1.16185 14.3027 1.32029 14.2058 1.39951C14.1089 1.47874 13.9566 1.51835 13.7074 1.51835C13.4581 1.51835 13.3058 1.47874 13.2228 1.39951C13.1397 1.32029 13.0981 1.17505 13.0981 0.950589C13.0981 0.726127 13.1397 0.567684 13.2366 0.488462C13.3197 0.40924 13.4858 0.369629 13.7351 0.369629C13.9843 0.369629 14.1366 0.40924 14.2197 0.488462C14.3027 0.567684 14.3443 0.712923 14.3443 0.937385ZM14.2335 7.92212C14.2335 7.92212 14.2335 7.97493 14.2058 8.00134C14.192 8.02775 14.1643 8.04095 14.1227 8.05416C14.0812 8.06736 14.0397 8.08056 13.9704 8.09377C13.9012 8.10697 13.8181 8.09377 13.7212 8.09377C13.6243 8.09377 13.5412 8.09377 13.472 8.09377C13.4028 8.09377 13.3612 8.08056 13.3197 8.05416C13.2781 8.04095 13.2504 8.01454 13.2366 8.00134C13.2366 7.97493 13.2089 7.94853 13.2089 7.92212V2.69347C13.2089 2.69347 13.2089 2.64066 13.2366 2.61425C13.2504 2.58784 13.2781 2.57464 13.3197 2.56144C13.3612 2.54823 13.4028 2.53503 13.472 2.52182C13.5412 2.52182 13.6243 2.52182 13.7212 2.52182C13.8181 2.52182 13.9012 2.52182 13.9704 2.52182C14.0397 2.52182 14.0812 2.53503 14.1227 2.56144C14.1643 2.57464 14.192 2.60105 14.2058 2.61425C14.2197 2.62745 14.2335 2.66707 14.2335 2.69347V7.92212Z" fill="white"/>
<path d="M17.0856 7.92219C17.0856 7.92219 17.0856 7.97501 17.0579 8.00141C17.0441 8.02782 17.0164 8.04102 16.9749 8.05423C16.9333 8.06743 16.8918 8.08064 16.8226 8.09384C16.7533 8.09384 16.6703 8.09384 16.5733 8.09384C16.4764 8.09384 16.3933 8.09384 16.3241 8.09384C16.2549 8.09384 16.1995 8.08064 16.1718 8.05423C16.1303 8.04102 16.1026 8.01462 16.0887 8.00141C16.0887 7.97501 16.061 7.9486 16.061 7.92219V0.171646C16.061 0.171646 16.061 0.118832 16.0887 0.0924252C16.1026 0.0660179 16.1303 0.0528143 16.1718 0.0396106C16.2133 0.026407 16.2549 0.0132037 16.3241 0C16.3933 0 16.4764 0 16.5733 0C16.6703 0 16.7533 0 16.8226 0C16.8918 0 16.9333 0.0132033 16.9749 0.0396106C17.0164 0.0528143 17.0441 0.0792215 17.0579 0.0924252C17.0718 0.105629 17.0856 0.145239 17.0856 0.171646V7.92219Z" fill="white"/>
<path d="M23.6348 7.92219C23.6348 7.92219 23.6348 7.97501 23.6071 8.00141C23.6071 8.02782 23.5656 8.04103 23.5379 8.05423C23.5102 8.06743 23.4548 8.08064 23.3994 8.08064C23.344 8.08064 23.2748 8.08064 23.1917 8.08064C23.1086 8.08064 23.0394 8.08064 22.984 8.08064C22.9286 8.08064 22.8871 8.06743 22.8456 8.05423C22.804 8.05423 22.7763 8.02782 22.7625 8.00141C22.7487 7.97501 22.7348 7.9486 22.7348 7.92219V7.2356C22.444 7.53929 22.1533 7.76375 21.8348 7.9354C21.5302 8.10704 21.1841 8.18627 20.8102 8.18627C20.4087 8.18627 20.0626 8.10704 19.7856 7.9618C19.4949 7.81656 19.2733 7.61851 19.0934 7.35444C18.9134 7.10357 18.7887 6.79988 18.7057 6.45659C18.6226 6.11329 18.5811 5.75679 18.5811 5.37389C18.5811 4.92496 18.6364 4.51565 18.7334 4.15915C18.8303 3.80265 18.9826 3.48576 19.1903 3.2349C19.3841 2.98403 19.6333 2.78597 19.9241 2.64073C20.2149 2.50869 20.561 2.42947 20.9487 2.42947C21.2671 2.42947 21.5579 2.49549 21.821 2.62753C22.0841 2.75956 22.3471 2.95762 22.6102 3.22169V0.18485C22.6102 0.18485 22.6102 0.132036 22.6379 0.105629C22.6379 0.0792218 22.6794 0.0660182 22.721 0.0528146C22.7625 0.0396109 22.8179 0.0264064 22.8733 0.0132027C22.9425 0.0132027 23.0117 0 23.1086 0C23.2056 0 23.2886 -9.56696e-07 23.3579 0.0132027C23.4271 0.0132027 23.4686 0.0396109 23.5102 0.0528146C23.5517 0.0660182 23.5794 0.0792218 23.5933 0.105629C23.6071 0.132036 23.6209 0.158443 23.6209 0.18485V7.90899L23.6348 7.92219ZM22.624 4.25158C22.3471 3.93469 22.0841 3.68382 21.8348 3.51217C21.5856 3.34052 21.3225 3.2613 21.0456 3.2613C20.7964 3.2613 20.5749 3.31412 20.3949 3.43295C20.2149 3.55178 20.0764 3.69702 19.9656 3.89508C19.8549 4.07993 19.7718 4.30439 19.7164 4.54206C19.661 4.77972 19.6472 5.03059 19.6472 5.26826C19.6472 5.53233 19.661 5.7832 19.7164 6.03407C19.758 6.28494 19.8272 6.5094 19.9379 6.70746C20.0487 6.90551 20.1872 7.06396 20.3533 7.18279C20.5195 7.30162 20.741 7.35444 21.0041 7.35444C21.1425 7.35444 21.2671 7.34123 21.3918 7.30162C21.5164 7.26201 21.641 7.2092 21.7656 7.12997C21.8902 7.05075 22.0287 6.94512 22.1671 6.81309C22.3056 6.68105 22.4579 6.5226 22.624 6.33775V4.25158Z" fill="white"/>
<path d="M26.6119 0.937385C26.6119 1.16185 26.5703 1.32029 26.4734 1.39951C26.3765 1.47874 26.2242 1.51835 25.9749 1.51835C25.7257 1.51835 25.5734 1.47874 25.4903 1.39951C25.4073 1.32029 25.3657 1.17505 25.3657 0.950589C25.3657 0.726127 25.4073 0.567684 25.5042 0.488462C25.5873 0.40924 25.7534 0.369629 26.0026 0.369629C26.2519 0.369629 26.4042 0.40924 26.4872 0.488462C26.5703 0.567684 26.6119 0.712923 26.6119 0.937385ZM26.5011 7.92212C26.5011 7.92212 26.5011 7.97493 26.4734 8.00134C26.4595 8.02775 26.4319 8.04095 26.3903 8.05416C26.3488 8.06736 26.3072 8.08056 26.238 8.09377C26.1688 8.09377 26.0857 8.09377 25.9888 8.09377C25.8919 8.09377 25.8088 8.09377 25.7396 8.09377C25.6703 8.09377 25.6288 8.08056 25.5873 8.05416C25.5457 8.04095 25.518 8.01454 25.5042 8.00134C25.5042 7.97493 25.4765 7.94853 25.4765 7.92212V2.69347C25.4765 2.69347 25.4765 2.64066 25.5042 2.61425C25.518 2.58784 25.5457 2.57464 25.5873 2.56144C25.6288 2.54823 25.6703 2.53503 25.7396 2.52182C25.8088 2.52182 25.8919 2.52182 25.9888 2.52182C26.0857 2.52182 26.1688 2.52182 26.238 2.52182C26.3072 2.52182 26.3488 2.53503 26.3903 2.56144C26.4319 2.57464 26.4595 2.60105 26.4734 2.61425C26.4872 2.64066 26.5011 2.66707 26.5011 2.69347V7.92212Z" fill="white"/>
<path d="M33.0639 7.92194C33.0639 7.92194 33.0639 7.97475 33.0362 8.00116C33.0224 8.02757 32.9947 8.04077 32.9531 8.05397C32.9116 8.06718 32.87 8.08038 32.8008 8.09359C32.7316 8.09359 32.6485 8.09359 32.5516 8.09359C32.4547 8.09359 32.3716 8.09359 32.3024 8.09359C32.2331 8.09359 32.1916 8.08038 32.1501 8.05397C32.1085 8.04077 32.0808 8.01436 32.067 8.00116C32.0531 7.97475 32.0393 7.94835 32.0393 7.92194V4.85869C32.0393 4.55501 32.0116 4.31734 31.9701 4.14569C31.9147 3.96084 31.8455 3.8024 31.7624 3.67036C31.6655 3.53833 31.5547 3.4327 31.4024 3.36668C31.2501 3.30066 31.0839 3.26105 30.8901 3.26105C30.6409 3.26105 30.3916 3.34027 30.1424 3.51192C29.8932 3.68357 29.6301 3.93444 29.3532 4.26453V7.90874C29.3532 7.90874 29.3532 7.96155 29.3255 7.98796C29.3117 8.01436 29.284 8.02757 29.2424 8.04077C29.2009 8.05397 29.1594 8.06718 29.0901 8.08038C29.0209 8.08038 28.9378 8.08038 28.8409 8.08038C28.744 8.08038 28.6609 8.08038 28.5917 8.08038C28.5225 8.08038 28.4809 8.06718 28.4394 8.04077C28.3978 8.02757 28.3702 8.00116 28.3563 7.98796C28.3563 7.96155 28.3286 7.93514 28.3286 7.90874V2.68009C28.3286 2.68009 28.3286 2.62727 28.3425 2.60087C28.3563 2.57446 28.384 2.56126 28.4117 2.54805C28.4532 2.53485 28.4948 2.52164 28.5501 2.50844C28.6055 2.50844 28.6748 2.50844 28.7717 2.50844C28.8686 2.50844 28.9378 2.50844 28.9932 2.50844C29.0486 2.50844 29.104 2.52164 29.1317 2.54805C29.1594 2.56126 29.1871 2.58766 29.2009 2.60087C29.2147 2.62727 29.2286 2.65368 29.2286 2.68009V3.36668C29.5332 3.03659 29.8378 2.79892 30.1563 2.64048C30.4609 2.48203 30.7655 2.41602 31.0839 2.41602C31.4439 2.41602 31.7624 2.46883 32.0116 2.58766C32.2608 2.70649 32.4685 2.86494 32.6208 3.06299C32.7731 3.26105 32.8839 3.48551 32.9531 3.76279C33.0224 4.02686 33.05 4.34375 33.05 4.71345V7.89553L33.0639 7.92194Z" fill="white"/>
<path d="M39.4744 2.93092C39.4744 3.06295 39.4606 3.16858 39.419 3.2214C39.3775 3.28742 39.336 3.31382 39.2667 3.31382H38.4775C38.616 3.45906 38.7129 3.6043 38.7821 3.77595C38.8375 3.9476 38.8652 4.11925 38.8652 4.3041C38.8652 4.60778 38.8098 4.87186 38.7129 5.10952C38.616 5.34719 38.4637 5.53204 38.2837 5.70369C38.0898 5.86213 37.8683 5.98096 37.6052 6.07339C37.3422 6.15261 37.0514 6.20542 36.7468 6.20542C36.5253 6.20542 36.3176 6.17902 36.1099 6.1262C35.9022 6.07339 35.7499 5.99417 35.6391 5.91494C35.5699 5.98096 35.5007 6.06018 35.4591 6.15261C35.4176 6.24504 35.3899 6.35066 35.3899 6.45629C35.3899 6.58833 35.4591 6.70716 35.5837 6.78638C35.7222 6.87881 35.8883 6.91842 36.1099 6.93163L37.536 6.98444C37.8129 6.98444 38.0621 7.02405 38.2837 7.09007C38.5052 7.15609 38.7129 7.24851 38.8791 7.36735C39.0452 7.48618 39.1698 7.63142 39.2667 7.80307C39.3637 7.97471 39.4052 8.17277 39.4052 8.39723C39.4052 8.6349 39.3498 8.85936 39.239 9.08382C39.1283 9.29508 38.976 9.49313 38.7544 9.65158C38.5329 9.81002 38.256 9.94206 37.9237 10.0345C37.5914 10.1269 37.1899 10.1797 36.7329 10.1797C36.276 10.1797 35.916 10.1401 35.6114 10.0741C35.3068 10.0081 35.0438 9.90245 34.8499 9.78361C34.6561 9.66478 34.5038 9.50634 34.4207 9.33469C34.3238 9.16304 34.2822 8.97819 34.2822 8.78014C34.2822 8.6481 34.2961 8.52927 34.3376 8.41043C34.3653 8.2916 34.4207 8.17277 34.4899 8.06714C34.5591 7.96151 34.6422 7.85588 34.7391 7.75025C34.8361 7.65783 34.9468 7.5522 35.0853 7.45977C34.8914 7.36735 34.7391 7.23531 34.6422 7.09007C34.5453 6.94483 34.5038 6.78638 34.5038 6.61474C34.5038 6.37707 34.5591 6.16581 34.6561 5.98096C34.753 5.79611 34.8776 5.62446 35.0299 5.47922C34.9053 5.33398 34.8084 5.17554 34.7253 4.99069C34.6561 4.80584 34.6145 4.59458 34.6145 4.34371C34.6145 4.04003 34.6699 3.77595 34.7668 3.53829C34.8638 3.30062 35.0161 3.10257 35.2099 2.94412C35.3899 2.78568 35.6253 2.65364 35.8883 2.57442C36.1514 2.48199 36.4283 2.44238 36.7468 2.44238C36.9129 2.44238 37.0652 2.44238 37.2175 2.46879C37.356 2.48199 37.4945 2.5084 37.6191 2.54801H39.2806C39.2806 2.54801 39.4052 2.57442 39.4329 2.64044C39.4744 2.70646 39.4883 2.79888 39.4883 2.93092H39.4744ZM38.4083 8.45005C38.4083 8.22558 38.3114 8.05394 38.1175 7.9351C37.9237 7.81627 37.6606 7.75025 37.3422 7.73705L35.9299 7.68423C35.8053 7.77666 35.6945 7.86908 35.6114 7.96151C35.5284 8.05394 35.4591 8.13316 35.4176 8.21238C35.3622 8.2916 35.3345 8.37082 35.3207 8.45005C35.3068 8.52927 35.293 8.60849 35.293 8.68771C35.293 8.93858 35.4314 9.12343 35.6945 9.25547C35.9576 9.38751 36.3314 9.45352 36.816 9.45352C37.1206 9.45352 37.3699 9.42712 37.5775 9.3743C37.7852 9.32149 37.9514 9.24227 38.076 9.14984C38.2006 9.05741 38.2975 8.95178 38.3529 8.83295C38.4083 8.71412 38.436 8.58208 38.436 8.45005H38.4083ZM37.9098 4.3041C37.9098 3.9476 37.8129 3.67032 37.6052 3.47227C37.3975 3.27421 37.1068 3.16858 36.7329 3.16858C36.5391 3.16858 36.373 3.19499 36.2206 3.26101C36.0822 3.32703 35.9576 3.40625 35.8607 3.51188C35.7637 3.61751 35.6945 3.74954 35.653 3.88158C35.6114 4.02682 35.5837 4.17206 35.5837 4.33051C35.5837 4.6738 35.6807 4.95108 35.8883 5.14913C36.096 5.34719 36.3868 5.43961 36.7468 5.43961C36.9406 5.43961 37.1206 5.4132 37.2591 5.34719C37.4114 5.29437 37.5222 5.20195 37.6191 5.09632C37.716 4.99069 37.7852 4.87186 37.8268 4.72662C37.8683 4.58138 37.896 4.43614 37.896 4.2909L37.9098 4.3041Z" fill="white"/>
<path d="M43.3099 6.08705C43.3099 5.87579 43.3376 5.67774 43.4068 5.47968C43.4622 5.29483 43.5591 5.09678 43.6976 4.92513C43.8222 4.74028 44.0022 4.56863 44.2099 4.39698C44.4176 4.22534 44.6668 4.05369 44.9714 3.89524C44.8053 3.68399 44.6668 3.49913 44.556 3.32749C44.4453 3.15584 44.3484 2.9974 44.2653 2.85216C44.1961 2.70692 44.1407 2.56168 44.0991 2.42964C44.0714 2.2976 44.0438 2.16557 44.0438 2.02033C44.0438 1.78266 44.0853 1.5582 44.1684 1.33374C44.2514 1.10927 44.3899 0.924423 44.5837 0.752775C44.7776 0.581128 45.013 0.449091 45.3176 0.356666C45.6083 0.251036 45.9683 0.211426 46.3975 0.211426C46.7575 0.211426 47.0621 0.251037 47.3252 0.317055C47.5883 0.396277 47.8098 0.488702 47.976 0.633942C48.1421 0.765979 48.2806 0.937626 48.3637 1.12248C48.4467 1.30733 48.4883 1.53179 48.4883 1.76946C48.4883 2.00712 48.4467 2.20518 48.3775 2.39003C48.2944 2.57488 48.1698 2.75973 48.0037 2.94458C47.8375 3.11623 47.616 3.30108 47.3529 3.47273C47.0898 3.64437 46.7714 3.82923 46.3837 4.02728C46.5222 4.18572 46.6745 4.35737 46.8406 4.52902C47.0068 4.70067 47.1729 4.87232 47.3529 5.04396C47.5329 5.21561 47.7129 5.38726 47.8929 5.5589C48.0729 5.73055 48.2529 5.889 48.4329 6.04744C48.516 5.94181 48.5852 5.82298 48.6544 5.69094C48.7236 5.5589 48.779 5.41367 48.8206 5.26842C48.8759 5.12318 48.9036 4.96474 48.9313 4.8195C48.959 4.66106 48.9729 4.50261 48.9729 4.34417V4.13291C48.9729 4.13291 48.9729 4.06689 49.0006 4.04048C49.0006 4.01408 49.0421 3.98767 49.0698 3.97447C49.0975 3.96126 49.1529 3.94806 49.2083 3.93486C49.2775 3.93486 49.3467 3.93486 49.4575 3.93486C49.5406 3.93486 49.6236 3.93486 49.679 3.93486C49.7482 3.93486 49.7898 3.93486 49.8313 3.96126C49.8729 3.97447 49.9005 4.00087 49.9144 4.02728C49.9282 4.05369 49.9421 4.0933 49.9421 4.14611V4.29135C49.9421 4.50261 49.9282 4.72707 49.8867 4.92513C49.8452 5.13639 49.7898 5.33444 49.7344 5.5325C49.6652 5.73055 49.5821 5.92861 49.4852 6.10026C49.3882 6.28511 49.2775 6.45675 49.1529 6.60199C49.3329 6.74723 49.499 6.85286 49.6236 6.94529C49.7621 7.03771 49.8729 7.11694 49.9698 7.16975C50.0667 7.22256 50.1498 7.26218 50.2051 7.28858C50.2744 7.31499 50.3159 7.32819 50.3575 7.32819C50.399 7.32819 50.4405 7.32819 50.4682 7.32819C50.5098 7.32819 50.5375 7.32819 50.5513 7.3414C50.579 7.3546 50.5928 7.39421 50.6067 7.43382C50.6067 7.48664 50.6205 7.55266 50.6205 7.64508C50.6205 7.73751 50.6205 7.81673 50.6205 7.88275C50.6205 7.93556 50.6205 7.98838 50.5928 8.01478C50.5928 8.04119 50.5651 8.0676 50.5375 8.0808C50.5098 8.09401 50.4682 8.12041 50.399 8.13362C50.3298 8.14682 50.2467 8.16002 50.1498 8.16002C50.0667 8.16002 49.9836 8.14682 49.8867 8.12041C49.7898 8.09401 49.679 8.04119 49.5405 7.97517C49.4159 7.90916 49.2636 7.81673 49.0836 7.6979C48.9175 7.57906 48.7098 7.43382 48.4744 7.26218C48.3083 7.39421 48.1283 7.51305 47.9344 7.63188C47.7406 7.73751 47.5468 7.84314 47.3252 7.92236C47.1175 8.00158 46.896 8.0676 46.6606 8.10721C46.4252 8.14682 46.176 8.17323 45.8991 8.17323C45.6499 8.17323 45.4006 8.14682 45.1653 8.10721C44.9299 8.0676 44.7222 8.00158 44.5284 7.92236C44.3345 7.84314 44.1545 7.73751 44.0022 7.61867C43.8499 7.49984 43.7115 7.3678 43.6145 7.20936C43.5038 7.05092 43.4207 6.87927 43.3653 6.69442C43.3099 6.50957 43.2822 6.29831 43.2822 6.07385L43.3099 6.08705ZM44.4037 5.98142C44.4037 6.17948 44.4453 6.36433 44.5145 6.53598C44.5837 6.70762 44.6945 6.83966 44.833 6.9717C44.9714 7.09053 45.1376 7.18295 45.3453 7.24897C45.5529 7.31499 45.7883 7.3546 46.0652 7.3546C46.2314 7.3546 46.3975 7.3414 46.5498 7.30179C46.7022 7.27538 46.8545 7.22256 47.0068 7.16975C47.1452 7.11694 47.2837 7.05092 47.4221 6.9717C47.5467 6.89247 47.6714 6.81325 47.7821 6.72083C47.5744 6.54918 47.3668 6.36433 47.1452 6.17948C46.9375 5.99463 46.7298 5.80977 46.536 5.61172C46.3422 5.42687 46.1483 5.22881 45.9683 5.04396C45.7883 4.85911 45.6222 4.67426 45.4699 4.48941C45.2622 4.60824 45.096 4.74028 44.9576 4.85911C44.8191 4.97794 44.7084 5.09678 44.6253 5.22881C44.5422 5.34765 44.4868 5.47968 44.4453 5.59852C44.4037 5.71735 44.3899 5.84939 44.3899 5.98142H44.4037ZM45.1099 1.9411C45.1099 2.04673 45.1237 2.15236 45.1514 2.25799C45.1791 2.36362 45.2345 2.48245 45.2899 2.60129C45.3453 2.72012 45.4283 2.85216 45.5253 2.98419C45.6222 3.11623 45.7191 3.27467 45.8437 3.43312C46.1345 3.27467 46.3837 3.12943 46.5914 2.9974C46.7852 2.86536 46.9514 2.73332 47.076 2.61449C47.2006 2.49566 47.2837 2.36362 47.3391 2.24479C47.3944 2.12596 47.4221 1.99392 47.4221 1.84868C47.4221 1.74305 47.3944 1.62422 47.3529 1.53179C47.3114 1.42616 47.2421 1.33374 47.1452 1.25451C47.0483 1.17529 46.9375 1.10927 46.7991 1.06966C46.6606 1.01685 46.4806 1.00364 46.2868 1.00364C46.0652 1.00364 45.8852 1.03005 45.7468 1.08287C45.5945 1.13568 45.4837 1.2017 45.3868 1.29412C45.2899 1.38655 45.2206 1.47898 45.1791 1.59781C45.1376 1.71664 45.1099 1.83547 45.1099 1.95431V1.9411Z" fill="white"/>
<path d="M56.0611 7.90918C56.0611 7.90918 56.0611 7.962 56.0334 7.9884C56.0057 8.01481 55.9918 8.02801 55.9503 8.04122C55.9088 8.05442 55.8534 8.06763 55.7842 8.08083C55.7149 8.08083 55.6319 8.09403 55.5349 8.09403C55.438 8.09403 55.3549 8.09403 55.2857 8.08083C55.2165 8.08083 55.1611 8.05442 55.1196 8.04122C55.078 8.02801 55.0503 8.01481 55.0365 7.9884C55.0226 7.962 55.0088 7.93559 55.0088 7.90918V0.699988C55.0088 0.699988 55.0088 0.647173 55.0365 0.620766C55.0503 0.594359 55.0919 0.581155 55.1334 0.567951C55.1749 0.567951 55.2303 0.541544 55.2996 0.528341C55.3688 0.528341 55.4519 0.515137 55.5349 0.515137C55.6319 0.515137 55.7149 0.515137 55.7842 0.528341C55.8534 0.528341 55.9088 0.554748 55.9503 0.567951C55.9918 0.581155 56.0195 0.594359 56.0334 0.620766C56.0472 0.647173 56.0611 0.673581 56.0611 0.699988V7.90918Z" fill="white"/>
<path d="M62.7636 7.92194C62.7636 7.92194 62.7636 7.97475 62.7359 8.00116C62.7221 8.02757 62.6944 8.04077 62.6528 8.05397C62.6113 8.06718 62.5698 8.08038 62.5005 8.09359C62.4313 8.09359 62.3482 8.09359 62.2513 8.09359C62.1544 8.09359 62.0713 8.09359 62.0021 8.09359C61.9328 8.09359 61.8913 8.08038 61.8498 8.05397C61.8082 8.04077 61.7805 8.01436 61.7667 8.00116C61.7529 7.97475 61.739 7.94835 61.739 7.92194V4.85869C61.739 4.55501 61.7113 4.31734 61.6698 4.14569C61.6144 3.96084 61.5452 3.8024 61.4621 3.67036C61.379 3.53833 61.2544 3.4327 61.1021 3.36668C60.9498 3.30066 60.7836 3.26105 60.5898 3.26105C60.3406 3.26105 60.0914 3.34027 59.8421 3.51192C59.5929 3.68357 59.3298 3.93444 59.0529 4.26453V7.90874C59.0529 7.90874 59.0529 7.96155 59.0252 7.98796C59.0114 8.01436 58.9837 8.02757 58.9421 8.04077C58.9006 8.05397 58.8591 8.06718 58.7898 8.08038C58.7206 8.09359 58.6375 8.08038 58.5406 8.08038C58.4437 8.08038 58.3606 8.08038 58.2914 8.08038C58.2222 8.08038 58.1806 8.06718 58.1391 8.04077C58.0976 8.02757 58.0699 8.00116 58.056 7.98796C58.056 7.96155 58.0283 7.93514 58.0283 7.90874V2.68009C58.0283 2.68009 58.0283 2.62727 58.0422 2.60087C58.056 2.57446 58.0837 2.56126 58.1114 2.54805C58.1529 2.53485 58.1945 2.52164 58.2499 2.50844C58.3052 2.50844 58.3745 2.50844 58.4714 2.50844C58.5683 2.50844 58.6375 2.50844 58.6929 2.50844C58.7483 2.50844 58.8037 2.52164 58.8314 2.54805C58.8591 2.56126 58.8868 2.58766 58.9006 2.60087C58.9145 2.62727 58.9283 2.65368 58.9283 2.68009V3.36668C59.2329 3.03659 59.5375 2.79892 59.856 2.64048C60.1606 2.48203 60.4652 2.41602 60.7836 2.41602C61.1436 2.41602 61.4621 2.46883 61.7113 2.58766C61.9605 2.70649 62.1682 2.86494 62.3205 3.06299C62.4728 3.26105 62.5836 3.48551 62.6528 3.76279C62.7221 4.02686 62.7498 4.34375 62.7498 4.71345V7.89553L62.7636 7.92194Z" fill="white"/>
<path d="M69.2847 7.92219C69.2847 7.92219 69.2847 7.97501 69.257 8.00141C69.257 8.02782 69.2155 8.04103 69.1878 8.05423C69.1601 8.06743 69.1047 8.08064 69.0493 8.08064C68.9939 8.08064 68.9247 8.08064 68.8416 8.08064C68.7586 8.08064 68.6893 8.08064 68.6339 8.08064C68.5786 8.08064 68.537 8.06743 68.4955 8.05423C68.4539 8.05423 68.4262 8.02782 68.4124 8.00141C68.3986 7.97501 68.3847 7.9486 68.3847 7.92219V7.2356C68.0939 7.53929 67.8032 7.76375 67.4847 7.9354C67.1801 8.10704 66.834 8.18627 66.4601 8.18627C66.0586 8.18627 65.7125 8.10704 65.4355 7.9618C65.1586 7.81656 64.9232 7.61851 64.7433 7.35444C64.5633 7.10357 64.4386 6.79988 64.3556 6.45659C64.2725 6.11329 64.231 5.75679 64.231 5.37389C64.231 4.92496 64.2863 4.51565 64.3833 4.15915C64.4802 3.80265 64.6325 3.48576 64.8402 3.2349C65.034 2.98403 65.2832 2.78597 65.574 2.64073C65.8648 2.50869 66.2109 2.42947 66.5986 2.42947C66.917 2.42947 67.2078 2.49549 67.4709 2.62753C67.734 2.75956 67.997 2.95762 68.2601 3.22169V0.18485C68.2601 0.18485 68.2601 0.132036 68.2878 0.105629C68.2878 0.0792218 68.3293 0.0660182 68.3709 0.0528146C68.4124 0.0396109 68.4678 0.0264064 68.5232 0.0132027C68.5924 0.0132027 68.6616 0 68.7585 0C68.8555 0 68.9385 -9.56696e-07 69.0078 0.0132027C69.077 0.0132027 69.1185 0.0396109 69.1601 0.0528146C69.2016 0.0660182 69.2293 0.0792218 69.2432 0.105629C69.257 0.132036 69.2708 0.158443 69.2708 0.18485V7.90899L69.2847 7.92219ZM68.2739 4.25158C67.997 3.93469 67.734 3.68382 67.4847 3.51217C67.2355 3.34052 66.9724 3.2613 66.6955 3.2613C66.4463 3.2613 66.2248 3.31412 66.0448 3.43295C65.8648 3.55178 65.7263 3.69702 65.6155 3.89508C65.5048 4.07993 65.4217 4.30439 65.3663 4.54206C65.3109 4.77972 65.2971 5.03059 65.2971 5.26826C65.2971 5.53233 65.3109 5.7832 65.3663 6.03407C65.4079 6.28494 65.4771 6.5094 65.5878 6.70746C65.6986 6.90551 65.8371 7.06396 66.0032 7.18279C66.1694 7.30162 66.3909 7.35444 66.654 7.35444C66.7924 7.35444 66.9171 7.34123 67.0417 7.30162C67.1663 7.26201 67.2909 7.2092 67.4155 7.12997C67.5401 7.05075 67.6786 6.94512 67.817 6.81309C67.9555 6.68105 68.1078 6.5226 68.2739 6.33775V4.25158Z" fill="white"/>
<path d="M75.8337 7.92276C75.8337 7.92276 75.8337 7.97557 75.8061 8.00198C75.8061 8.02838 75.7645 8.04159 75.7368 8.05479C75.7091 8.06799 75.6537 8.0812 75.5984 8.0944C75.543 8.0944 75.4737 8.0944 75.3768 8.0944C75.2799 8.0944 75.2107 8.0944 75.1553 8.0944C75.0999 8.0944 75.0445 8.0812 75.0168 8.05479C74.9891 8.04159 74.9615 8.01518 74.9476 8.00198C74.9476 7.97557 74.9338 7.94916 74.9338 7.92276V7.23616C74.6153 7.56626 74.3107 7.80392 74.0061 7.94916C73.7015 8.0944 73.3969 8.17362 73.0784 8.17362C72.7184 8.17362 72.4 8.12081 72.1507 8.00198C71.9015 7.88314 71.6938 7.7247 71.5415 7.52665C71.3892 7.32859 71.2785 7.09092 71.2092 6.82685C71.14 6.56278 71.1123 6.24589 71.1123 5.86298V2.69411C71.1123 2.69411 71.1123 2.64129 71.14 2.61489C71.14 2.58848 71.1815 2.57528 71.2231 2.56207C71.2646 2.54887 71.32 2.53566 71.3892 2.52246C71.4585 2.52246 71.5415 2.52246 71.6385 2.52246C71.7354 2.52246 71.8184 2.52246 71.8877 2.52246C71.9569 2.52246 71.9984 2.53566 72.04 2.56207C72.0815 2.57528 72.1092 2.60168 72.1231 2.61489C72.1369 2.64129 72.1507 2.6677 72.1507 2.69411V5.73095C72.1507 6.03463 72.1784 6.2855 72.22 6.47035C72.2615 6.6552 72.3307 6.81365 72.4277 6.94568C72.5246 7.07772 72.6492 7.17015 72.7877 7.24937C72.94 7.31539 73.1061 7.355 73.3 7.355C73.5492 7.355 73.7984 7.27578 74.0476 7.10413C74.2969 6.93248 74.5599 6.68161 74.8368 6.35152V2.70731C74.8368 2.70731 74.8368 2.6545 74.8645 2.62809C74.8645 2.60168 74.9061 2.58848 74.9476 2.57528C74.9891 2.56207 75.0445 2.54887 75.0999 2.53566C75.1691 2.53566 75.2384 2.53566 75.3491 2.53566C75.4599 2.53566 75.5291 2.53566 75.5984 2.53566C75.6676 2.53566 75.7091 2.54887 75.7507 2.57528C75.7922 2.58848 75.8199 2.61489 75.8337 2.62809C75.8476 2.6545 75.8614 2.6809 75.8614 2.70731V7.93596L75.8337 7.92276Z" fill="white"/>
<path d="M81.1228 6.49594C81.1228 6.76002 81.0674 6.99768 80.9705 7.20894C80.8735 7.4202 80.7212 7.59185 80.5274 7.73709C80.3335 7.88233 80.112 7.98796 79.8489 8.06718C79.5859 8.1464 79.2951 8.17281 78.9766 8.17281C78.7828 8.17281 78.6028 8.15961 78.4228 8.1332C78.2428 8.10679 78.0905 8.06718 77.9521 8.02757C77.8136 7.98796 77.689 7.93514 77.5921 7.88233C77.4951 7.82951 77.4259 7.7899 77.3844 7.75029C77.3428 7.71068 77.3013 7.65787 77.2875 7.59185C77.2736 7.52583 77.2598 7.4334 77.2598 7.30137C77.2598 7.22215 77.2598 7.16933 77.2598 7.11652C77.2598 7.0637 77.2736 7.02409 77.2875 6.99768C77.2875 6.97128 77.3151 6.94487 77.3428 6.93167C77.3705 6.93167 77.3844 6.90526 77.4121 6.90526C77.4536 6.90526 77.5228 6.93167 77.6059 6.98448C77.689 7.03729 77.7998 7.09011 77.9244 7.15613C78.049 7.22214 78.2013 7.27496 78.3813 7.32777C78.5613 7.38059 78.7551 7.407 78.9905 7.407C79.1566 7.407 79.309 7.39379 79.4474 7.35418C79.5859 7.31457 79.7105 7.27496 79.8074 7.19574C79.9043 7.12972 79.9874 7.03729 80.0428 6.93167C80.0982 6.82604 80.1259 6.7072 80.1259 6.56196C80.1259 6.41672 80.0843 6.28469 80.0012 6.19226C79.9182 6.08663 79.8212 6.00741 79.6828 5.92819C79.5582 5.84897 79.4059 5.78295 79.2397 5.71693C79.0736 5.65091 78.9074 5.5981 78.7413 5.53208C78.5751 5.46606 78.3951 5.38684 78.229 5.30762C78.0628 5.22839 77.9244 5.12276 77.7859 5.00393C77.6613 4.8851 77.5505 4.73986 77.4675 4.56821C77.3844 4.39656 77.3428 4.19851 77.3428 3.97405C77.3428 3.76279 77.3844 3.57794 77.4675 3.37988C77.5505 3.19503 77.6751 3.02338 77.8413 2.89135C78.0074 2.74611 78.2151 2.64048 78.4644 2.54805C78.7136 2.46883 79.0043 2.41602 79.3366 2.41602C79.4889 2.41602 79.6274 2.41602 79.7797 2.45563C79.932 2.48203 80.0566 2.50844 80.1812 2.54805C80.292 2.58766 80.4028 2.62727 80.4859 2.66688C80.5689 2.7065 80.6382 2.74611 80.6797 2.77251C80.7212 2.79892 80.7489 2.82533 80.7628 2.85174C80.7766 2.87814 80.7905 2.90455 80.7905 2.93096C80.7905 2.95736 80.7905 2.99698 80.8043 3.03659C80.8043 3.0762 80.8043 3.12901 80.8043 3.19503C80.8043 3.26105 80.8043 3.31386 80.8043 3.36668C80.8043 3.41949 80.7905 3.4591 80.7766 3.48551C80.7628 3.51192 80.7489 3.53833 80.7212 3.55153C80.7074 3.56473 80.6797 3.57794 80.652 3.57794C80.6105 3.57794 80.5689 3.55153 80.4997 3.51192C80.4305 3.47231 80.3474 3.41949 80.2366 3.37988C80.1259 3.32707 80.0012 3.28746 79.8489 3.24784C79.6966 3.20823 79.5305 3.18183 79.3366 3.18183C79.1705 3.18183 79.0182 3.19503 78.8936 3.23464C78.769 3.27425 78.6582 3.32707 78.5751 3.39309C78.4921 3.4591 78.4228 3.53833 78.3813 3.63075C78.3397 3.72318 78.3121 3.82881 78.3121 3.93444C78.3121 4.07968 78.3536 4.21171 78.4367 4.31734C78.5197 4.42297 78.6167 4.5154 78.7551 4.58141C78.8797 4.66064 79.032 4.72665 79.1982 4.79267C79.3643 4.85869 79.5305 4.92471 79.7105 4.99073C79.8766 5.05675 80.0566 5.13597 80.2228 5.21519C80.3889 5.29441 80.5412 5.40004 80.6658 5.50567C80.7905 5.6245 80.9012 5.75654 80.9843 5.92819C81.0674 6.08663 81.1089 6.28469 81.1089 6.50915L81.1228 6.49594Z" fill="white"/>
<path d="M85.2626 7.53907C85.2626 7.6447 85.2627 7.73712 85.235 7.80314C85.2211 7.86916 85.1934 7.92197 85.1657 7.94838C85.138 7.97479 85.0827 8.0144 85.0134 8.04081C84.9442 8.06721 84.875 8.09362 84.7919 8.10682C84.7088 8.12003 84.6257 8.13323 84.5288 8.14643C84.4319 8.14643 84.3488 8.15964 84.2519 8.15964C83.9611 8.15964 83.7258 8.12003 83.5181 8.05401C83.3104 7.98799 83.1442 7.86916 83.0196 7.72392C82.895 7.57868 82.7981 7.39383 82.7427 7.16936C82.6873 6.9449 82.6596 6.68083 82.6596 6.37715V3.3271H81.8981C81.8981 3.3271 81.7873 3.30069 81.7458 3.23468C81.7043 3.16866 81.6904 3.07623 81.6904 2.93099C81.6904 2.85177 81.6904 2.79896 81.7043 2.74614C81.7043 2.69333 81.732 2.65372 81.7458 2.62731C81.7596 2.6009 81.7873 2.57449 81.815 2.56129C81.8427 2.56129 81.8704 2.53488 81.8981 2.53488H82.6596V1.29374C82.6596 1.29374 82.6596 1.24092 82.6873 1.21452C82.6873 1.18811 82.7289 1.17491 82.7704 1.1485C82.8119 1.13529 82.8673 1.12209 82.9227 1.10889C82.9919 1.10889 83.075 1.10889 83.1719 1.10889C83.2689 1.10889 83.3519 1.10889 83.4212 1.10889C83.4904 1.10889 83.5319 1.13529 83.5735 1.1485C83.615 1.1617 83.6288 1.18811 83.6565 1.21452C83.6704 1.24092 83.6842 1.26733 83.6842 1.29374V2.53488H85.0965C85.0965 2.53488 85.1519 2.53488 85.1796 2.56129C85.2073 2.57449 85.2211 2.6009 85.2488 2.62731C85.2627 2.66692 85.2765 2.70653 85.2903 2.74614C85.2903 2.79896 85.2903 2.85177 85.2903 2.93099C85.2903 3.07623 85.2765 3.16866 85.235 3.23468C85.1934 3.30069 85.1519 3.3271 85.0827 3.3271H83.6704V6.24511C83.6704 6.60161 83.7258 6.87888 83.8365 7.06374C83.9473 7.24859 84.1411 7.34101 84.4319 7.34101C84.5288 7.34101 84.6119 7.34101 84.6811 7.31461C84.7504 7.3014 84.8196 7.27499 84.875 7.26179C84.9304 7.24859 84.9857 7.22218 85.0273 7.20897C85.0688 7.19577 85.1104 7.18257 85.138 7.18257C85.1519 7.18257 85.1796 7.18257 85.1934 7.19577C85.2073 7.19577 85.2211 7.22218 85.235 7.24859C85.235 7.27499 85.2488 7.3146 85.2626 7.35422C85.2626 7.40703 85.2626 7.45985 85.2626 7.52586V7.53907Z" fill="white"/>
<path d="M89.7905 3.03659C89.7905 3.11581 89.7905 3.19503 89.7905 3.24784C89.7905 3.30066 89.7905 3.35347 89.7628 3.37988C89.7628 3.41949 89.7351 3.4327 89.7213 3.4591C89.7074 3.47231 89.6797 3.48551 89.652 3.48551C89.6244 3.48551 89.5828 3.48551 89.5274 3.4591C89.4859 3.4459 89.4305 3.41949 89.3751 3.40629C89.3197 3.39309 89.2505 3.36668 89.1813 3.35348C89.1121 3.34027 89.029 3.32707 88.9459 3.32707C88.849 3.32707 88.7521 3.34027 88.6551 3.37988C88.5582 3.41949 88.4613 3.48551 88.3505 3.57794C88.2398 3.67036 88.129 3.7892 88.0182 3.93444C87.9075 4.07968 87.769 4.26453 87.6305 4.47579V7.90874C87.6305 7.90874 87.6306 7.96155 87.6029 7.98796C87.589 8.01436 87.5613 8.02757 87.5198 8.04077C87.4783 8.05398 87.4367 8.06718 87.3675 8.08038C87.2983 8.08038 87.2152 8.08038 87.1183 8.08038C87.0213 8.08038 86.9383 8.08038 86.869 8.08038C86.7998 8.08038 86.7583 8.06718 86.7167 8.04077C86.6752 8.02757 86.6475 8.00116 86.6337 7.98796C86.6337 7.96155 86.606 7.93514 86.606 7.90874V2.68009C86.606 2.68009 86.606 2.62727 86.6198 2.60087C86.6337 2.57446 86.6613 2.56126 86.689 2.54805C86.7306 2.53485 86.7721 2.52164 86.8275 2.50844C86.8829 2.50844 86.9521 2.50844 87.049 2.50844C87.1459 2.50844 87.2152 2.50844 87.2706 2.50844C87.3259 2.50844 87.3813 2.52164 87.409 2.54805C87.4367 2.56126 87.4644 2.58766 87.4782 2.60087C87.4921 2.62727 87.5059 2.65368 87.5059 2.68009V3.4459C87.6582 3.23464 87.7967 3.06299 87.9352 2.93096C88.0598 2.79892 88.1844 2.69329 88.309 2.61407C88.4198 2.53485 88.5444 2.48203 88.6551 2.45563C88.7659 2.42922 88.8905 2.41602 89.0013 2.41602C89.0567 2.41602 89.1121 2.41602 89.1813 2.41602C89.2505 2.41602 89.3197 2.42922 89.389 2.44242C89.4582 2.45563 89.5274 2.46883 89.5828 2.49524C89.6382 2.50844 89.6797 2.53485 89.7074 2.54805C89.7351 2.56126 89.749 2.58766 89.7628 2.60087C89.7628 2.61407 89.7767 2.64048 89.7905 2.66688C89.7905 2.69329 89.7905 2.7329 89.7905 2.78572C89.7905 2.83853 89.7905 2.90455 89.7905 2.99698V3.03659Z" fill="white"/>
<path d="M93.487 8.06708L92.7532 9.98161C92.7532 9.98161 92.6701 10.0872 92.5732 10.1269C92.4763 10.1533 92.324 10.1797 92.1163 10.1797C92.0055 10.1797 91.9224 10.1797 91.867 10.1665C91.7978 10.1665 91.7563 10.1401 91.7147 10.1136C91.6732 10.0872 91.6594 10.0608 91.6594 10.0212C91.6594 9.98161 91.6593 9.942 91.687 9.87598L92.4347 8.05388C92.4347 8.05388 92.3655 8.01427 92.3239 7.97465C92.2963 7.93504 92.2686 7.90864 92.2547 7.86902L90.3025 2.87804C90.2748 2.79882 90.2471 2.7328 90.2471 2.67999C90.2471 2.62717 90.2609 2.60077 90.3025 2.57436C90.3301 2.54795 90.3855 2.53475 90.4548 2.52155C90.524 2.52155 90.6209 2.50834 90.7455 2.50834C90.8701 2.50834 90.9671 2.50834 91.0363 2.50834C91.1055 2.50834 91.1609 2.52154 91.2024 2.53475C91.244 2.54795 91.2717 2.57436 91.2855 2.60077C91.2994 2.62717 91.327 2.66679 91.3409 2.7196L92.9055 6.90516H92.9193L94.4285 2.69319C94.4562 2.61397 94.4839 2.57436 94.5116 2.54795C94.5531 2.52154 94.5947 2.50834 94.6639 2.49514C94.7331 2.49514 94.8301 2.48193 94.9685 2.48193C95.0793 2.48193 95.1762 2.48193 95.2454 2.49514C95.3147 2.49514 95.37 2.52154 95.4116 2.54795C95.4393 2.57436 95.467 2.61397 95.467 2.65358C95.467 2.69319 95.467 2.75921 95.4254 2.82523L93.4593 8.01427L93.487 8.06708Z" fill="white"/>
<path d="M92.9329 66.5858C92.9329 67.0348 92.8498 67.4309 92.6698 67.7874C92.4898 68.1439 92.2545 68.4344 91.9499 68.6852C91.6453 68.9361 91.2714 69.1077 90.856 69.2398C90.4407 69.3586 89.9837 69.4246 89.513 69.4246C89.1807 69.4246 88.8622 69.3982 88.5715 69.3454C88.2807 69.2926 88.0315 69.2266 87.7961 69.1474C87.5746 69.0681 87.3807 68.9889 87.2284 68.8965C87.0761 68.8173 86.9654 68.738 86.91 68.6852C86.8546 68.6324 86.7992 68.5532 86.7715 68.4608C86.7438 68.3683 86.73 68.2495 86.73 68.0911C86.73 67.9854 86.73 67.893 86.7438 67.827C86.7438 67.761 86.7715 67.695 86.7854 67.6553C86.813 67.6157 86.8269 67.5761 86.8684 67.5629C86.8961 67.5497 86.9377 67.5365 86.9792 67.5365C87.0484 67.5365 87.1592 67.5761 87.2838 67.6685C87.4223 67.7478 87.5884 67.8402 87.7961 67.9458C88.0038 68.0382 88.253 68.1439 88.5438 68.2231C88.8345 68.3155 89.1807 68.3551 89.5545 68.3551C89.8453 68.3551 90.1084 68.3155 90.3576 68.2495C90.593 68.1703 90.8007 68.0647 90.9807 67.9326C91.1468 67.8006 91.2853 67.6289 91.3822 67.4309C91.4791 67.2328 91.5206 67.0084 91.5206 66.7575C91.5206 66.4802 91.4514 66.2558 91.3268 66.0577C91.2022 65.8596 91.0222 65.7012 90.8145 65.556C90.6068 65.4107 90.3576 65.2787 90.0807 65.1599C89.8038 65.041 89.5268 64.909 89.2499 64.7902C88.9592 64.6581 88.6822 64.5261 88.4192 64.3676C88.1561 64.2092 87.9069 64.0375 87.6992 63.8263C87.4915 63.615 87.3115 63.3774 87.1869 63.1001C87.0484 62.8228 86.993 62.4927 86.993 62.0966C86.993 61.7005 87.0761 61.344 87.2284 61.0271C87.3807 60.7102 87.5884 60.4461 87.8653 60.2349C88.1423 60.0236 88.4607 59.8652 88.8345 59.7464C89.2084 59.6407 89.6099 59.5747 90.053 59.5747C90.2745 59.5747 90.496 59.5879 90.7314 59.6275C90.953 59.6671 91.1745 59.7199 91.3683 59.7728C91.5622 59.8388 91.7422 59.9048 91.8945 59.984C92.0468 60.0632 92.1575 60.1161 92.1991 60.1689C92.2545 60.2217 92.2822 60.2481 92.296 60.2745C92.3099 60.3009 92.3237 60.3405 92.3375 60.3801C92.3375 60.4197 92.3514 60.4726 92.3652 60.5386C92.3652 60.5914 92.3652 60.6706 92.3652 60.763C92.3652 60.8555 92.3652 60.9347 92.3652 61.0007C92.3652 61.0667 92.3514 61.1327 92.3237 61.1723C92.3098 61.2252 92.2822 61.2516 92.2545 61.278C92.2268 61.3044 92.1991 61.3176 92.1575 61.3176C92.1022 61.3176 92.0052 61.278 91.8945 61.212C91.7699 61.1459 91.6176 61.0667 91.4514 60.9743C91.2714 60.8819 91.0637 60.8026 90.8283 60.7366C90.593 60.6706 90.316 60.631 90.0114 60.631C89.7345 60.631 89.4853 60.6706 89.2776 60.7366C89.0699 60.8026 88.9038 60.9083 88.7653 61.0271C88.6269 61.1459 88.5299 61.2912 88.4607 61.4496C88.3915 61.6081 88.3638 61.7797 88.3638 61.9646C88.3638 62.2286 88.433 62.4663 88.5576 62.6512C88.6822 62.8492 88.8622 63.0209 89.0699 63.1661C89.2776 63.3113 89.5268 63.4566 89.8037 63.5754C90.0807 63.6942 90.3576 63.8263 90.6483 63.9451C90.9391 64.0772 91.216 64.2092 91.4929 64.3544C91.7699 64.4997 92.0191 64.6845 92.2268 64.8826C92.4345 65.0806 92.6145 65.3315 92.7529 65.6088C92.8775 65.8861 92.9468 66.2161 92.9468 66.599L92.9329 66.5858Z" fill="white"/>
<path d="M101.559 67.9204C101.559 67.9996 101.559 68.0656 101.559 68.1317C101.559 68.1845 101.559 68.2373 101.531 68.2901C101.531 68.3297 101.503 68.3693 101.476 68.4089C101.448 68.4486 101.42 68.4882 101.365 68.541C101.31 68.5938 101.199 68.6598 101.033 68.7654C100.867 68.8711 100.659 68.9635 100.41 69.0559C100.16 69.1483 99.8835 69.2276 99.565 69.3068C99.2466 69.3728 98.9004 69.4124 98.5127 69.4124C97.862 69.4124 97.2666 69.3068 96.7405 69.0955C96.2143 68.8843 95.7713 68.5806 95.3974 68.1713C95.0236 67.762 94.7467 67.2602 94.539 66.6661C94.3451 66.0719 94.2344 65.3853 94.2344 64.6063C94.2344 63.8273 94.3451 63.1011 94.5528 62.4805C94.7744 61.8599 95.0651 61.3318 95.4528 60.8961C95.8405 60.4603 96.3113 60.1303 96.8512 59.9058C97.3912 59.6813 98.0004 59.5625 98.6512 59.5625C98.942 59.5625 99.2189 59.5889 99.4958 59.6417C99.7727 59.6945 100.022 59.7606 100.257 59.8398C100.493 59.919 100.7 60.0114 100.88 60.1171C101.06 60.2227 101.185 60.3019 101.254 60.3679C101.323 60.4339 101.365 60.4868 101.393 60.5132C101.42 60.5528 101.434 60.5924 101.448 60.632C101.448 60.6848 101.476 60.7376 101.476 60.8036C101.476 60.8697 101.476 60.9489 101.476 61.0281C101.476 61.1205 101.476 61.213 101.462 61.279C101.462 61.345 101.434 61.411 101.42 61.4506C101.407 61.5034 101.379 61.5298 101.351 61.5562C101.323 61.5827 101.282 61.5959 101.24 61.5959C101.171 61.5959 101.06 61.543 100.936 61.4506C100.811 61.3582 100.631 61.2526 100.437 61.1337C100.23 61.0149 99.9804 60.9093 99.6896 60.8168C99.3989 60.7244 99.0389 60.6716 98.6374 60.6716C98.1943 60.6716 97.7789 60.7508 97.4189 60.9225C97.0451 61.0941 96.7405 61.345 96.4774 61.6751C96.2143 62.0052 96.0205 62.4145 95.8682 62.8898C95.7297 63.3652 95.6466 63.9065 95.6466 64.5271C95.6466 65.1476 95.7159 65.6758 95.8543 66.1379C95.9928 66.6 96.1866 66.9962 96.4497 67.313C96.7128 67.6299 97.0312 67.8676 97.4051 68.026C97.7789 68.1845 98.2081 68.2637 98.6789 68.2637C99.0804 68.2637 99.4266 68.2109 99.7312 68.1185C100.036 68.026 100.285 67.9204 100.493 67.8016C100.7 67.6827 100.88 67.5771 101.019 67.4847C101.157 67.3923 101.254 67.3395 101.337 67.3395C101.379 67.3395 101.407 67.3395 101.434 67.3659C101.462 67.3791 101.476 67.4055 101.49 67.4451C101.503 67.4847 101.517 67.5507 101.531 67.6167C101.531 67.6959 101.531 67.7884 101.531 67.894L101.559 67.9204Z" fill="white"/>
<path d="M110.586 69.0817C110.586 69.0817 110.586 69.1609 110.559 69.1873C110.545 69.2137 110.503 69.2402 110.448 69.2534C110.392 69.2666 110.323 69.2798 110.24 69.293C110.157 69.293 110.046 69.3062 109.922 69.3062C109.783 69.3062 109.672 69.3062 109.589 69.293C109.506 69.293 109.437 69.2666 109.382 69.2534C109.326 69.2402 109.299 69.2137 109.271 69.1873C109.243 69.1609 109.243 69.1213 109.243 69.0817V64.8301H104.66V69.0817C104.66 69.0817 104.66 69.1609 104.633 69.1873C104.619 69.2137 104.577 69.2402 104.522 69.2534C104.466 69.2666 104.397 69.2798 104.314 69.293C104.231 69.3062 104.12 69.3062 103.996 69.3062C103.871 69.3062 103.76 69.3062 103.677 69.293C103.594 69.2798 103.525 69.2666 103.47 69.2534C103.414 69.2402 103.386 69.2137 103.359 69.1873C103.345 69.1609 103.331 69.1213 103.331 69.0817V59.8788C103.331 59.8788 103.331 59.7995 103.359 59.7731C103.373 59.7467 103.414 59.7203 103.47 59.7071C103.525 59.6939 103.594 59.6807 103.677 59.6675C103.76 59.6543 103.871 59.6543 103.996 59.6543C104.12 59.6543 104.231 59.6543 104.314 59.6675C104.397 59.6807 104.466 59.6939 104.522 59.7071C104.577 59.7203 104.605 59.7467 104.633 59.7731C104.646 59.7995 104.66 59.8391 104.66 59.8788V63.721H109.243V59.8788C109.243 59.8788 109.243 59.7995 109.271 59.7731C109.285 59.7467 109.326 59.7203 109.382 59.7071C109.437 59.6939 109.506 59.6807 109.589 59.6675C109.672 59.6675 109.783 59.6543 109.922 59.6543C110.046 59.6543 110.157 59.6543 110.24 59.6675C110.323 59.6675 110.392 59.6939 110.448 59.7071C110.503 59.7203 110.531 59.7467 110.559 59.7731C110.572 59.7995 110.586 59.8391 110.586 59.8788V69.0817Z" fill="white"/>
<path d="M120.791 68.8181C120.832 68.9237 120.86 69.0162 120.86 69.0822C120.86 69.1482 120.846 69.201 120.805 69.2274C120.763 69.267 120.694 69.2802 120.597 69.2934C120.5 69.2934 120.375 69.3066 120.209 69.3066C120.043 69.3066 119.919 69.3066 119.822 69.3066C119.725 69.3066 119.655 69.2802 119.6 69.267C119.545 69.2538 119.517 69.2274 119.489 69.201C119.462 69.1746 119.448 69.135 119.42 69.0954L118.562 66.7583H114.38L113.549 69.069C113.549 69.069 113.508 69.1482 113.494 69.1878C113.466 69.2142 113.425 69.2406 113.383 69.267C113.328 69.2934 113.259 69.3066 113.176 69.3198C113.093 69.333 112.968 69.333 112.816 69.333C112.663 69.333 112.539 69.333 112.442 69.3198C112.345 69.3198 112.276 69.2802 112.234 69.2538C112.193 69.2142 112.179 69.1746 112.179 69.0954C112.179 69.0294 112.206 68.9369 112.248 68.8313L115.626 59.9188C115.626 59.9188 115.682 59.8264 115.709 59.7868C115.737 59.7472 115.792 59.7208 115.862 59.7076C115.931 59.6944 116.014 59.6812 116.111 59.668C116.208 59.668 116.346 59.668 116.499 59.668C116.665 59.668 116.803 59.668 116.914 59.668C117.025 59.668 117.108 59.6944 117.177 59.7076C117.246 59.734 117.302 59.7604 117.329 59.8C117.371 59.8396 117.399 59.8792 117.412 59.932L120.791 68.8445V68.8181ZM116.457 60.9619L114.726 65.7417H118.229L116.471 60.9619H116.457Z" fill="white"/>
<path d="M129.03 69.0685C129.03 69.0685 129.03 69.1477 129.002 69.1741C128.988 69.2005 128.947 69.2269 128.891 69.2534C128.836 69.2666 128.767 69.293 128.684 69.3062C128.601 69.3194 128.476 69.3194 128.337 69.3194C128.157 69.3194 128.005 69.3194 127.894 69.293C127.784 69.2798 127.701 69.2534 127.631 69.2137C127.576 69.1741 127.534 69.1345 127.493 69.0817L123.796 64.2888V69.0817C123.796 69.0817 123.796 69.1477 123.768 69.1873C123.754 69.2137 123.713 69.2401 123.658 69.2666C123.602 69.2798 123.533 69.293 123.45 69.3062C123.367 69.3194 123.256 69.3194 123.131 69.3194C123.007 69.3194 122.896 69.3194 122.813 69.3062C122.73 69.293 122.661 69.2798 122.605 69.2666C122.55 69.2534 122.522 69.2269 122.494 69.1873C122.481 69.1609 122.467 69.1213 122.467 69.0817V59.8788C122.467 59.8788 122.467 59.7995 122.494 59.7731C122.508 59.7467 122.55 59.7203 122.605 59.7071C122.661 59.6939 122.73 59.6807 122.813 59.6675C122.896 59.6543 123.007 59.6543 123.131 59.6543C123.256 59.6543 123.367 59.6543 123.45 59.6675C123.533 59.6807 123.602 59.6939 123.658 59.7071C123.713 59.7203 123.741 59.7467 123.768 59.7731C123.782 59.7995 123.796 59.8391 123.796 59.8788V64.1435L127.354 59.8788C127.354 59.8788 127.424 59.7995 127.465 59.7731C127.507 59.7467 127.562 59.7203 127.617 59.7071C127.673 59.6939 127.756 59.6807 127.839 59.6675C127.922 59.6543 128.033 59.6543 128.171 59.6543C128.31 59.6543 128.421 59.6543 128.504 59.6675C128.587 59.6807 128.656 59.6939 128.697 59.7203C128.753 59.7335 128.781 59.7599 128.794 59.7995C128.808 59.8259 128.822 59.8656 128.822 59.892C128.822 59.958 128.808 60.024 128.767 60.09C128.739 60.156 128.67 60.2485 128.573 60.3541L125.236 64.1567L128.822 68.712C128.905 68.844 128.96 68.9233 128.988 68.9761C129.002 69.0289 129.016 69.0553 129.016 69.0949L129.03 69.0685Z" fill="white"/>
<path d="M138.417 64.3682C138.417 65.1472 138.32 65.847 138.127 66.4676C137.933 67.0881 137.656 67.6163 137.268 68.052C136.88 68.4877 136.41 68.831 135.828 69.0555C135.247 69.2931 134.582 69.412 133.82 69.412C133.059 69.412 132.408 69.3063 131.854 69.0951C131.301 68.8838 130.844 68.5669 130.484 68.1576C130.124 67.7483 129.861 67.2334 129.681 66.626C129.501 66.0186 129.417 65.3188 129.417 64.5266C129.417 63.7344 129.514 63.0874 129.708 62.4669C129.902 61.8463 130.193 61.3181 130.567 60.8956C130.954 60.4599 131.425 60.1298 132.007 59.8921C132.588 59.6545 133.253 59.5356 134.014 59.5356C134.776 59.5356 135.399 59.6413 135.953 59.8525C136.507 60.0638 136.963 60.3807 137.323 60.7768C137.683 61.1861 137.96 61.6878 138.14 62.2952C138.32 62.9026 138.403 63.5892 138.403 64.355L138.417 64.3682ZM137.005 64.4606C137.005 63.9193 136.95 63.4175 136.853 62.9422C136.756 62.4801 136.59 62.0707 136.354 61.7275C136.119 61.3842 135.8 61.1201 135.413 60.922C135.025 60.724 134.54 60.6315 133.959 60.6315C133.377 60.6315 132.893 60.7372 132.505 60.9484C132.117 61.1597 131.799 61.437 131.55 61.7803C131.301 62.1236 131.134 62.5329 131.024 62.995C130.913 63.4571 130.871 63.9457 130.871 64.4474C130.871 65.0152 130.927 65.5301 131.024 66.0054C131.121 66.4808 131.287 66.8901 131.522 67.2334C131.757 67.5767 132.062 67.8407 132.464 68.0388C132.851 68.2236 133.35 68.3293 133.931 68.3293C134.513 68.3293 135.011 68.2236 135.413 68.0124C135.814 67.8011 136.133 67.5239 136.382 67.1674C136.631 66.8109 136.797 66.4015 136.908 65.9394C137.005 65.4773 137.06 64.9888 137.06 64.4606H137.005Z" fill="white"/>
<path d="M151.682 60.988C151.682 61.0805 151.682 61.1597 151.668 61.2389C151.668 61.3049 151.64 61.3709 151.626 61.4106C151.613 61.4634 151.585 61.4898 151.543 61.5162C151.516 61.5294 151.474 61.5426 151.446 61.5426C151.391 61.5426 151.28 61.4898 151.142 61.3974C150.989 61.3049 150.796 61.1993 150.56 61.0805C150.311 60.9616 150.02 60.8692 149.688 60.7636C149.356 60.658 148.94 60.6183 148.483 60.6183C147.93 60.6183 147.431 60.7108 146.988 60.9088C146.545 61.1069 146.171 61.3709 145.866 61.7142C145.562 62.0575 145.327 62.4669 145.16 62.929C144.994 63.4043 144.911 63.9061 144.911 64.4606C144.911 65.068 144.994 65.6225 145.174 66.0979C145.354 66.5732 145.603 66.9693 145.922 67.2994C146.24 67.6295 146.614 67.8671 147.057 68.0388C147.5 68.2104 147.971 68.2897 148.497 68.2897C148.802 68.2897 149.12 68.2501 149.439 68.184C149.757 68.118 150.062 67.9992 150.325 67.8671V65.068H147.999C147.916 65.068 147.846 65.0284 147.805 64.9359C147.763 64.8567 147.736 64.7247 147.736 64.5398C147.736 64.4474 147.736 64.3682 147.75 64.3022C147.75 64.2361 147.777 64.1833 147.805 64.1437C147.833 64.1041 147.86 64.0645 147.888 64.0513C147.916 64.0249 147.957 64.0249 147.999 64.0249H151.197C151.197 64.0249 151.308 64.0249 151.363 64.0513C151.419 64.0777 151.474 64.1041 151.516 64.1437C151.557 64.1833 151.599 64.2361 151.626 64.3022C151.654 64.3682 151.668 64.4474 151.668 64.5398V68.1972C151.668 68.3293 151.64 68.4349 151.599 68.5273C151.557 68.6198 151.46 68.699 151.308 68.7782C151.156 68.8442 150.962 68.9234 150.726 69.0159C150.491 69.0951 150.242 69.1743 149.993 69.2271C149.743 69.2799 149.48 69.3328 149.217 69.3592C148.954 69.3856 148.705 69.3988 148.442 69.3988C147.666 69.3988 146.974 69.2799 146.365 69.0555C145.756 68.831 145.23 68.5009 144.814 68.0784C144.399 67.6559 144.067 67.1409 143.845 66.5468C143.623 65.9526 143.513 65.2924 143.513 64.5662C143.513 63.84 143.637 63.1138 143.873 62.4933C144.108 61.8727 144.454 61.3445 144.897 60.9088C145.34 60.4731 145.866 60.143 146.476 59.8921C147.085 59.6545 147.763 59.5356 148.511 59.5356C148.899 59.5356 149.259 59.5621 149.591 59.6281C149.923 59.6941 150.228 59.7733 150.491 59.8525C150.754 59.945 150.976 60.0374 151.156 60.1298C151.336 60.2354 151.46 60.3147 151.529 60.3807C151.599 60.4467 151.64 60.5259 151.668 60.6051C151.696 60.6844 151.709 60.8164 151.709 60.9616L151.682 60.988Z" fill="white"/>
<path d="M158.12 62.8493C158.12 62.9549 158.12 63.0473 158.12 63.1266C158.12 63.2058 158.106 63.2586 158.092 63.2982C158.078 63.3378 158.051 63.3774 158.037 63.3906C158.009 63.417 157.981 63.4303 157.94 63.4303C157.898 63.4303 157.843 63.4302 157.788 63.3906C157.732 63.3642 157.663 63.351 157.58 63.3246C157.511 63.2982 157.414 63.285 157.331 63.2586C157.234 63.2322 157.137 63.2322 157.026 63.2322C156.901 63.2322 156.763 63.2586 156.638 63.3114C156.514 63.3642 156.389 63.4435 156.251 63.5623C156.112 63.6811 155.974 63.8264 155.821 64.0112C155.669 64.1961 155.503 64.4337 155.323 64.6978V69.0814C155.323 69.0814 155.323 69.1606 155.295 69.187C155.268 69.2134 155.24 69.2399 155.198 69.2531C155.157 69.2795 155.088 69.2927 155.005 69.2927C154.921 69.2927 154.811 69.3059 154.686 69.3059C154.561 69.3059 154.465 69.3059 154.381 69.2927C154.298 69.2927 154.229 69.2663 154.188 69.2531C154.132 69.2267 154.105 69.2134 154.091 69.187C154.077 69.1606 154.063 69.121 154.063 69.0814V62.4136C154.063 62.4136 154.063 62.3343 154.091 62.3079C154.105 62.2815 154.132 62.2551 154.188 62.2287C154.229 62.2023 154.298 62.1891 154.368 62.1891C154.437 62.1891 154.534 62.1891 154.658 62.1891C154.783 62.1891 154.866 62.1891 154.949 62.1891C155.018 62.1891 155.088 62.2155 155.129 62.2287C155.171 62.2551 155.198 62.2815 155.212 62.3079C155.226 62.3343 155.24 62.374 155.24 62.4136V63.3906C155.434 63.1266 155.614 62.9021 155.78 62.7437C155.946 62.572 156.112 62.44 156.264 62.3476C156.417 62.2551 156.569 62.1891 156.708 62.1495C156.86 62.1099 156.998 62.0967 157.151 62.0967C157.22 62.0967 157.289 62.0967 157.386 62.0967C157.469 62.0967 157.566 62.1231 157.649 62.1363C157.746 62.1495 157.829 62.1759 157.898 62.2023C157.968 62.2287 158.023 62.2551 158.064 62.2815C158.092 62.3079 158.12 62.3343 158.12 62.3476C158.12 62.374 158.134 62.4004 158.148 62.4268C158.148 62.4664 158.148 62.506 158.161 62.572C158.161 62.638 158.161 62.7305 158.161 62.8493H158.12Z" fill="white"/>
<path d="M165.831 65.6754C165.831 66.2167 165.762 66.7185 165.61 67.1806C165.458 67.6427 165.236 68.0256 164.932 68.3689C164.641 68.699 164.267 68.9631 163.81 69.148C163.367 69.3328 162.841 69.4252 162.259 69.4252C161.678 69.4252 161.179 69.346 160.75 69.1744C160.321 69.0159 159.961 68.7783 159.684 68.4614C159.393 68.1445 159.185 67.7748 159.047 67.3259C158.909 66.8769 158.839 66.3752 158.839 65.8074C158.839 65.2397 158.909 64.7643 159.061 64.3022C159.213 63.8401 159.435 63.444 159.725 63.1139C160.016 62.7838 160.39 62.5197 160.847 62.3481C161.29 62.1632 161.816 62.0708 162.412 62.0708C163.007 62.0708 163.492 62.15 163.921 62.3085C164.35 62.4669 164.71 62.7046 164.987 63.0215C165.278 63.3384 165.485 63.7081 165.624 64.157C165.762 64.6059 165.831 65.1076 165.831 65.6622V65.6754ZM164.502 65.7546C164.502 65.3981 164.461 65.0548 164.392 64.7379C164.322 64.4211 164.212 64.1306 164.045 63.8929C163.879 63.6552 163.658 63.4572 163.381 63.3119C163.104 63.1667 162.758 63.1007 162.342 63.1007C161.955 63.1007 161.636 63.1667 161.359 63.2987C161.082 63.4308 160.861 63.6024 160.681 63.8401C160.501 64.0778 160.376 64.355 160.279 64.6719C160.196 64.9888 160.155 65.3453 160.155 65.7282C160.155 66.1111 160.196 66.4412 160.265 66.7581C160.335 67.075 160.459 67.3655 160.612 67.6031C160.778 67.8408 160.999 68.0389 161.276 68.1709C161.553 68.3161 161.899 68.3822 162.315 68.3822C162.688 68.3822 163.021 68.3161 163.298 68.1841C163.575 68.0521 163.796 67.8804 163.976 67.6427C164.156 67.4051 164.281 67.1278 164.364 66.8109C164.447 66.494 164.488 66.1375 164.488 65.7546H164.502Z" fill="white"/>
<path d="M173.71 69.0818C173.71 69.0818 173.71 69.161 173.682 69.1874C173.668 69.2138 173.627 69.2402 173.585 69.2534C173.544 69.2798 173.475 69.293 173.405 69.293C173.336 69.293 173.239 69.3062 173.128 69.3062C173.004 69.3062 172.907 69.3062 172.838 69.293C172.768 69.293 172.699 69.2666 172.658 69.2534C172.616 69.227 172.588 69.2138 172.575 69.1874C172.561 69.161 172.547 69.1214 172.547 69.0818V68.1971C172.145 68.6196 171.758 68.9233 171.37 69.1214C170.982 69.3194 170.595 69.4119 170.193 69.4119C169.722 69.4119 169.335 69.3326 169.016 69.1874C168.698 69.0421 168.435 68.8309 168.241 68.58C168.047 68.3292 167.909 68.0255 167.812 67.6954C167.729 67.3521 167.687 66.9428 167.687 66.4674V62.4139C167.687 62.4139 167.687 62.3347 167.715 62.3083C167.729 62.2819 167.77 62.2555 167.825 62.2291C167.881 62.2027 167.95 62.1895 168.033 62.1895C168.116 62.1895 168.213 62.1895 168.338 62.1895C168.462 62.1895 168.573 62.1895 168.642 62.1895C168.725 62.1895 168.795 62.2159 168.836 62.2291C168.892 62.2555 168.919 62.2819 168.947 62.3083C168.975 62.3347 168.975 62.3743 168.975 62.4139V66.2958C168.975 66.6919 169.002 66.9956 169.058 67.2332C169.113 67.4709 169.21 67.669 169.335 67.8406C169.459 68.0123 169.612 68.1311 169.792 68.2235C169.972 68.3159 170.193 68.3556 170.442 68.3556C170.761 68.3556 171.079 68.2499 171.398 68.0255C171.716 67.801 172.048 67.4841 172.408 67.0748V62.4139C172.408 62.4139 172.408 62.3347 172.436 62.3083C172.45 62.2819 172.492 62.2555 172.547 62.2291C172.602 62.2027 172.672 62.1895 172.741 62.1895C172.824 62.1895 172.921 62.1895 173.059 62.1895C173.198 62.1895 173.281 62.1895 173.364 62.1895C173.447 62.1895 173.516 62.2159 173.558 62.2291C173.599 62.2555 173.641 62.2819 173.668 62.3083C173.696 62.3347 173.71 62.3743 173.71 62.4139V69.0818Z" fill="white"/>
<path d="M182.516 65.6489C182.516 66.2299 182.447 66.758 182.322 67.2202C182.184 67.6823 181.99 68.0784 181.741 68.4085C181.477 68.7386 181.173 68.9763 180.785 69.1611C180.411 69.3328 179.982 69.4252 179.484 69.4252C179.276 69.4252 179.082 69.412 178.916 69.3724C178.736 69.3328 178.57 69.2667 178.404 69.1875C178.238 69.1083 178.071 69.0027 177.905 68.8706C177.739 68.7386 177.559 68.5933 177.379 68.4217V71.7622C177.379 71.7622 177.379 71.8414 177.351 71.8679C177.324 71.8943 177.296 71.9207 177.254 71.9471C177.213 71.9735 177.144 71.9867 177.061 71.9867C176.978 71.9867 176.867 71.9999 176.742 71.9999C176.618 71.9999 176.521 71.9999 176.438 71.9867C176.355 71.9867 176.285 71.9603 176.244 71.9471C176.188 71.9207 176.161 71.9075 176.147 71.8679C176.133 71.8414 176.119 71.8018 176.119 71.7622V62.4404C176.119 62.4404 176.119 62.3612 176.147 62.3348C176.161 62.3084 176.188 62.282 176.244 62.2688C176.285 62.2556 176.355 62.2424 176.424 62.2292C176.493 62.2292 176.59 62.2292 176.687 62.2292C176.784 62.2292 176.881 62.2292 176.95 62.2292C177.019 62.2292 177.074 62.2556 177.13 62.2688C177.171 62.2952 177.213 62.3084 177.227 62.3348C177.241 62.3612 177.254 62.4008 177.254 62.4404V63.3383C177.462 63.127 177.67 62.9554 177.864 62.7969C178.058 62.6385 178.265 62.5197 178.459 62.414C178.653 62.3084 178.861 62.2424 179.068 62.1896C179.276 62.1368 179.498 62.1104 179.733 62.1104C180.245 62.1104 180.674 62.2028 181.034 62.3876C181.394 62.5725 181.685 62.8365 181.907 63.1534C182.128 63.4835 182.294 63.8532 182.405 64.289C182.502 64.7247 182.557 65.1736 182.557 65.6621L182.516 65.6489ZM181.187 65.7942C181.187 65.4509 181.159 65.1208 181.104 64.8039C181.048 64.487 180.951 64.1965 180.827 63.9589C180.688 63.708 180.508 63.5099 180.287 63.3647C180.065 63.2195 179.788 63.1402 179.456 63.1402C179.29 63.1402 179.124 63.1666 178.958 63.2063C178.791 63.2591 178.625 63.3251 178.459 63.4307C178.293 63.5363 178.113 63.6684 177.933 63.8268C177.753 63.9985 177.559 64.1965 177.351 64.4342V67.0881C177.711 67.4974 178.044 67.8143 178.362 68.0256C178.681 68.2368 179.013 68.3557 179.359 68.3557C179.678 68.3557 179.954 68.2765 180.19 68.1312C180.425 67.986 180.605 67.7879 180.758 67.537C180.896 67.2862 181.007 67.0089 181.076 66.7052C181.145 66.4015 181.173 66.0846 181.173 65.781L181.187 65.7942Z" fill="white"/>
<path d="M190.795 17.838C189.867 15.3557 189.341 11.4606 189.313 11.3418C185.894 12.0812 182.861 13.7581 180.494 16.0687L189.84 23.1063C190.629 22.5913 191.57 22.2744 192.567 22.1556C192.526 22.0236 192.484 21.8915 192.443 21.7595C192.041 20.4655 191.21 18.9339 190.795 17.838Z" fill="white"/>
<path d="M192.9 35.1489L189.798 44.7612C190.809 44.9592 191.848 45.0517 192.9 45.0781V35.1621V35.1489Z" fill="white"/>
<path d="M187.154 28.4148C187.154 28.2695 187.112 28.1375 187.112 28.0054C187.112 27.1868 187.292 26.4078 187.597 25.6948C187.472 25.6684 187.334 25.642 187.209 25.6024C185.839 25.2855 184.025 25.2063 182.82 24.995C181.74 24.8102 180.494 24.4537 179.373 24.0972C180.868 25.9457 181.837 28.0054 182.252 30.2633L187.154 28.4016V28.4148Z" fill="white"/>
<path d="M178.016 19.1194L187.016 24.0707L179.858 16.7163C179.165 17.4557 178.556 18.2611 178.016 19.1062V19.1194Z" fill="white"/>
<path d="M188.884 44.55L190.615 33.3005C189.729 32.8912 188.967 32.2838 188.385 31.5444C188.289 31.6369 188.192 31.7425 188.095 31.8481C187.125 32.8252 186.142 34.2776 185.353 35.1622C184.232 36.4166 182.542 37.8162 181.407 38.7008C181.199 39.1761 180.978 39.6515 180.715 40.1004C182.944 42.213 185.755 43.7842 188.898 44.55H188.884Z" fill="white"/>
<path d="M186.615 31.2402L182.475 32.1381C182.488 32.4418 182.516 32.7454 182.516 33.0491C182.516 33.2076 182.502 33.3528 182.488 33.4981L186.601 31.2402H186.615Z" fill="white"/>
<path d="M197.745 11.4478L196.015 22.6973C196.901 23.1066 197.662 23.714 198.244 24.4534C198.341 24.3609 198.438 24.2553 198.535 24.1497C199.504 23.1726 200.487 21.7202 201.276 20.8356C203.034 18.855 206.219 16.5312 206.427 16.3727C204.114 14.0093 201.124 12.2664 197.732 11.4346L197.745 11.4478Z" fill="white"/>
<path d="M200.017 24.7571L210.277 22.5256C209.945 21.575 209.529 20.6639 209.031 19.7925L200.017 24.7571Z" fill="white"/>
<path d="M210.443 33.0362C210.955 31.4385 211.246 29.7485 211.246 27.9924C211.246 26.3947 210.997 24.8499 210.567 23.3711L199.477 27.5699C199.477 27.7151 199.518 27.8471 199.518 27.9792C199.518 28.7978 199.338 29.5768 199.034 30.2898C199.158 30.3162 199.297 30.3426 199.421 30.3822C200.792 30.6991 202.606 30.7783 203.811 30.9896C206.58 31.4649 210.457 33.023 210.457 33.023L210.443 33.0362Z" fill="white"/>
<path d="M193.717 20.8359L196.819 11.2236C195.808 11.0256 194.77 10.9331 193.717 10.9067V20.8359Z" fill="white"/>
<path d="M194.062 33.8286C194.104 33.9606 194.146 34.0927 194.187 34.2247C194.589 35.5187 195.419 37.0503 195.835 38.1462C196.762 40.6417 197.302 44.5236 197.316 44.6424C200.736 43.903 203.768 42.2261 206.136 39.9155L196.79 32.8779C196.001 33.3929 195.059 33.7098 194.062 33.8286Z" fill="white"/>
<path d="M208.615 36.8654L199.615 31.9141L206.774 39.2685C207.466 38.5291 208.075 37.7237 208.615 36.8786V36.8654Z" fill="white"/>
<path d="M193.315 6.46973C184.163 6.46973 176.299 11.672 172.754 19.1452C173.267 19.3433 173.765 19.581 174.264 19.845C177.545 12.9131 184.842 8.06737 193.315 8.06737C204.835 8.06737 214.209 17.0062 214.209 27.9917C214.209 38.9771 204.835 47.916 193.315 47.916C187.777 47.916 182.751 45.8298 178.999 42.4761C178.653 42.8722 178.293 43.2419 177.905 43.6248C177.905 43.6248 177.877 43.6512 177.864 43.6644C181.907 47.2822 187.32 49.5268 193.315 49.5268C205.777 49.5268 215.884 39.8882 215.884 28.0049C215.884 16.1216 205.777 6.48293 193.315 6.48293V6.46973Z" fill="white"/>
<path d="M15.161 20.5059V31.2932L8.63963 20.5059H0.0136719V45.7777H8.34887V34.2377L15.4518 45.7777H23.4824V20.5059H15.161Z" fill="white"/>
<path d="M151.335 45.7767H147.597C143.221 45.7767 140.244 44.5619 137.614 41.7099C135.343 39.2408 134.194 36.3492 134.194 33.1276C134.194 29.4041 135.786 25.9052 138.569 23.4757C140.757 21.5347 143.664 20.5181 146.918 20.5181H151.335V27.8461H149.3C146.835 27.8461 145.478 28.2686 144.329 29.4041C143.221 30.434 142.654 31.728 142.654 33.286C142.654 35.1873 143.526 36.8246 145.16 37.8017C146.35 38.5675 147.112 38.7127 149.77 38.7127H151.321V45.7767H151.335Z" fill="white"/>
<path d="M180.564 33.0619C180.564 40.2711 174.403 46.1467 166.884 46.1467C159.366 46.1467 153.094 40.3107 153.094 33.1015C153.094 25.8923 159.227 19.9507 167.009 19.9507C174.79 19.9507 180.564 25.9055 180.564 33.0751V33.0619ZM161.512 32.9959C161.512 35.9931 163.921 38.4622 166.884 38.4622C169.847 38.4622 172.146 35.9931 172.146 33.0355C172.146 30.0779 169.778 27.6484 166.773 27.6484C163.769 27.6484 161.512 30.0383 161.512 32.9959Z" fill="white"/>
<path d="M53.2783 33.0619C53.2783 40.2711 47.1169 46.1467 39.5986 46.1467C32.0803 46.1467 25.8081 40.3107 25.8081 33.1015C25.8081 25.8923 31.9418 19.9507 39.7232 19.9507C47.5045 19.9507 53.2783 25.9055 53.2783 33.0751V33.0619ZM34.2264 32.9959C34.2264 35.9931 36.6356 38.4622 39.5986 38.4622C42.5616 38.4622 44.86 35.9931 44.86 33.0355C44.86 30.0779 42.4924 27.6484 39.4878 27.6484C36.4833 27.6484 34.2264 30.0383 34.2264 32.9959Z" fill="white"/>
<path d="M123.255 20.5059V31.2932L116.499 20.5059H107.554V45.7777H116.194V34.2377L123.574 45.7777H131.895V20.5059H123.255Z" fill="white"/>
<path d="M72.9119 20.5059L66.7366 36.5615L60.5475 20.5059H51.9077L61.3644 45.7777H72.1088L81.5932 20.5059H72.9119Z" fill="white"/>
<path d="M104.647 27.3982V20.5059H83.9058V45.7777H104.647V39.3079H92.2271V36.3106H100.507V30.4086H92.2271V27.3982H104.647Z" fill="white"/>
</svg>
